<svg id="Layer_1" data-name="Layer 1" xmlns="http://www.w3.org/2000/svg" viewBox="0 0 24 24"><defs><style>.cls-1{fill:#005579;stroke:#005579;stroke-miterlimit:10;}</style></defs><title>icon-section</title><path class="cls-1" d="M20.44,9.44a7.63,7.63,0,0,0-.68-1.61,8.39,8.39,0,0,1,.65-2.66l-.72-.72-.17-.17-.71-.72a7.32,7.32,0,0,1-2.66.65,9.24,9.24,0,0,0-1.61-.67,8.41,8.41,0,0,1-1.41-2.32H10.87A7.91,7.91,0,0,1,9.46,3.56a8.1,8.1,0,0,0-1.61.68,8.52,8.52,0,0,1-2.66-.65l-.71.72-.17.17-.72.71a7.53,7.53,0,0,1,.65,2.66,8.55,8.55,0,0,0-.68,1.61,8.36,8.36,0,0,1-2.34,1.41v2.26a7.91,7.91,0,0,1,2.34,1.41,8.1,8.1,0,0,0,.68,1.61,8.52,8.52,0,0,1-.65,2.66l.72.71.17.17.71.72a7.53,7.53,0,0,1,2.66-.65,8.55,8.55,0,0,0,1.61.68,7.91,7.91,0,0,1,1.41,2.34h2.26a7.91,7.91,0,0,1,1.41-2.34,8.1,8.1,0,0,0,1.61-.68,8.52,8.52,0,0,1,2.66.65l.71-.72.17-.17.72-.71a7.53,7.53,0,0,1-.65-2.66,8.55,8.55,0,0,0,.68-1.61,7.91,7.91,0,0,1,2.34-1.41V10.87A8.21,8.21,0,0,1,20.44,9.44Zm-8.44,9A6.47,6.47,0,1,1,18.47,12,6.47,6.47,0,0,1,12,18.49Z"/></svg>