<?xml version="1.0" encoding="utf-8"?>
<!-- Generator: Adobe Illustrator 23.0.1, SVG Export Plug-In . SVG Version: 6.00 Build 0)  -->
<svg version="1.1" id="Layer_1" xmlns="http://www.w3.org/2000/svg" xmlns:xlink="http://www.w3.org/1999/xlink" x="0px" y="0px"
	 viewBox="0 0 28 28" style="enable-background:new 0 0 28 28;" xml:space="preserve">
<style type="text/css">
	.st0{fill-rule:evenodd;clip-rule:evenodd;fill:#C4C4C4;}
</style>
<g>
	<path class="st0" d="M4.4,11v12.7c0,0.7,0.5,1.2,1.2,1.2h16.9c0.7,0,1.2-0.5,1.2-1.2V11L14,3.5L4.4,11z M2.4,9.4L13.3,1
		c0.4-0.3,1-0.3,1.5,0l10.8,8.4c0.3,0.2,0.5,0.6,0.5,1v13.2c0,2-1.6,3.6-3.6,3.6H5.6c-2,0-3.6-1.6-3.6-3.6V10.4
		C2,10,2.1,9.7,2.4,9.4z"/>
	<path class="st0" d="M11.6,15.2V26c0,0.7-0.5,1.2-1.2,1.2S9.2,26.7,9.2,26V14c0-0.7,0.5-1.2,1.2-1.2h7.2c0.7,0,1.2,0.5,1.2,1.2v12
		c0,0.7-0.5,1.2-1.2,1.2c-0.7,0-1.2-0.5-1.2-1.2V15.2H11.6z"/>
</g>
</svg>
