<?xml version="1.0" encoding="utf-8"?>
<!-- Generator: Adobe Illustrator 23.0.1, SVG Export Plug-In . SVG Version: 6.00 Build 0)  -->
<svg version="1.1" id="Layer_1" xmlns="http://www.w3.org/2000/svg" xmlns:xlink="http://www.w3.org/1999/xlink" x="0px" y="0px"
	 viewBox="0 0 28 28" style="enable-background:new 0 0 28 28;" xml:space="preserve">
<style type="text/css">
	.st0{fill:#C4C4C4;}
	.st1{opacity:0.5;fill:#C4C4C4;enable-background:new    ;}
</style>
<g>
	<g>
		<g id="Layer_2-2">
			<path class="st0" d="M25.1,11.1l2.4-2.4l-2.4-2.4l-1.7-1.7c-5.2-5.2-13.7-5.2-18.9,0s-5.2,13.7,0,18.9c5.2,5.2,13.7,5.2,18.9,0
				l1.7-1.7l2.4-2.4L22.2,14L25.1,11.1z M22.7,19.3l-1.7,1.7c-3.9,3.9-10.2,3.9-14.1,0S3,10.8,6.8,6.9c3.9-3.9,10.2-3.9,14.1,0
				l1.7,1.7l-2.9,2.9L18,9.9c-1.1-1.1-2.6-1.7-4.1-1.7l0,0C10.6,8.1,8,10.8,8,14s2.6,5.9,5.9,5.9c0,0,0,0,0,0l0,0
				c1.6,0,3-0.6,4.1-1.7l1.7-1.7L22.7,19.3z M17.3,14l-1.7,1.7c-0.5,0.5-1.1,0.7-1.7,0.7l0,0c-1.4,0-2.4-1.1-2.4-2.4
				s1.1-2.4,2.4-2.4l0,0c0.6,0,1.3,0.2,1.7,0.7L17.3,14L17.3,14L17.3,14z"/>
			<polygon class="st1" points="19.7,11.6 22.2,14 24.3,11.9 21.7,9.6 			"/>
			<path class="st1" d="M17.3,14l-1.7,1.7l0,0l2.4,2.4l0,0l1.7-1.7L17.3,14z"/>
		</g>
	</g>
</g>
</svg>
