<svg id="Layer_1" data-name="Layer 1" xmlns="http://www.w3.org/2000/svg" viewBox="0 0 28 28"><defs><style>.cls-1{fill:#3ebdcc;fill-rule:evenodd;}</style></defs><title>homeg</title><path class="cls-1" d="M4.39,11V23.63a1.22,1.22,0,0,0,1.22,1.21h17a1.21,1.21,0,0,0,1.21-1.21V11L14.11,3.49Zm-2-1.54L13.37,1a1.22,1.22,0,0,1,1.49,0L25.8,9.44a1.21,1.21,0,0,1,.46,1V23.63a3.62,3.62,0,0,1-3.64,3.61h-17A3.62,3.62,0,0,1,2,23.63V10.39A1.19,1.19,0,0,1,2.43,9.44Z"/><path class="cls-1" d="M11.68,15.2V26a1.22,1.22,0,0,1-2.43,0V14a1.21,1.21,0,0,1,1.22-1.2h7.29A1.21,1.21,0,0,1,19,14V26a1.22,1.22,0,0,1-2.43,0V15.2Z"/></svg>