<svg id="Layer_1" data-name="Layer 1" xmlns="http://www.w3.org/2000/svg" viewBox="0 0 28 28"><defs><style>.cls-1,.cls-2{fill:#3ebdcc;}.cls-2{opacity:0.5;isolation:isolate;}</style></defs><title>homeg</title><g id="Layer_2-2" data-name="Layer 2-2"><path class="cls-1" d="M25.07,11.09l2.41-2.41L25.07,6.27,23.33,4.54a13.37,13.37,0,1,0,0,18.92l1.74-1.73,2.41-2.41L22.16,14Zm-2.42,8.23-1.73,1.73a10,10,0,1,1,0-14.14l0,0,1.73,1.73-2.91,2.9L18,9.85a5.8,5.8,0,0,0-4.15-1.7h0a5.85,5.85,0,0,0,0,11.7h0A5.8,5.8,0,0,0,18,18.14l1.73-1.73ZM17.33,14,15.6,15.73a2.45,2.45,0,0,1-1.74.72h0a2.45,2.45,0,0,1,0-4.9h0a2.44,2.44,0,0,1,1.74.71L17.33,14Z"/><polygon class="cls-2" points="19.74 11.59 22.15 14 24.29 11.86 21.71 9.62 19.74 11.59"/><path class="cls-2" d="M17.33,14,15.6,15.73h0L18,18.14h0l1.73-1.73Z"/></g></svg>